# xmcd
#
# Track frame offsets: 
#        150
#        17693
#        35756
#        51999
#        66561
#        79056
#        92554
#        106869
#        121299
#        135566
#        149915
#        165855
#        179630
#        195249
#        210077
#        226031
#
# Disc length: 3231 seconds
#
# Revision: 4
# Processed by: cddbd v1.5.2PL0 Copyright (c) Steve Scherf et al.
# Submitted via: ExactAudioCopyFreeDBPlugin 1.0
#
DISCID=d50c9d10
DTITLE=John Lee Hooker - Blues Is The Healer  [CD 01-10]
DYEAR=2005
DGENRE=Blues
TTITLE0=Leavin' Chicago
TTITLE1=Wednesday Evening Blues
TTITLE2=My First Wife Left Me
TTITLE3=Sally Mae
TTITLE4=War Is Over  (Goodbye California)
TTITLE5=She Was In Chicago
TTITLE6=Boogie Chillen
TTITLE7=Henry's Swing Club
TTITLE8=Stomp Boogie
TTITLE9=Who's Been Jiving You ¿
TTITLE10=Black Man Blues
TTITLE11=Shake Your Boogie
TTITLE12=Poor Slim
TTITLE13=Mercy Blues
TTITLE14=Boogie Woogie
TTITLE15=Helpless Blues
EXTD=10 CD Set YEAR: 2005
EXTT0=
EXTT1=
EXTT2=
EXTT3=
EXTT4=
EXTT5=
EXTT6=
EXTT7=
EXTT8=
EXTT9=
EXTT10=
EXTT11=
EXTT12=
EXTT13=
EXTT14=
EXTT15=
PLAYORDER=
